<mxfile host="65bd71144e">
    <diagram id="LCHA04EXzaqb2ToQ3wXi" name="Page-1">
        <mxGraphModel dx="1446" dy="1586" grid="1" gridSize="10" guides="1" tooltips="1" connect="1" arrows="1" fold="1" page="1" pageScale="1" pageWidth="850" pageHeight="1100" math="0" shadow="0">
            <root>
                <mxCell id="0"/>
                <mxCell id="1" parent="0"/>
                <mxCell id="45" value="" style="rounded=0;whiteSpace=wrap;html=1;fontColor=#007FFF;" vertex="1" parent="1">
                    <mxGeometry x="-40" y="-30" width="830" height="560" as="geometry"/>
                </mxCell>
                <mxCell id="4" value="VPC" style="points=[[0,0],[0.25,0],[0.5,0],[0.75,0],[1,0],[1,0.25],[1,0.5],[1,0.75],[1,1],[0.75,1],[0.5,1],[0.25,1],[0,1],[0,0.75],[0,0.5],[0,0.25]];outlineConnect=0;html=1;whiteSpace=wrap;fontSize=12;fontStyle=0;container=1;pointerEvents=0;collapsible=0;recursiveResize=0;shape=mxgraph.aws4.group;grIcon=mxgraph.aws4.group_vpc;verticalAlign=top;align=left;spacingLeft=30;dashed=0;" parent="1" vertex="1">
                    <mxGeometry x="40" y="50" width="520" height="470" as="geometry"/>
                </mxCell>
                <mxCell id="5" value="" style="fillColor=none;strokeColor=#147EBA;dashed=1;verticalAlign=top;fontStyle=0;fontColor=#147EBA;" vertex="1" parent="4">
                    <mxGeometry x="26" y="44" width="470" height="190" as="geometry"/>
                </mxCell>
                <mxCell id="6" value="" style="fillColor=none;strokeColor=#147EBA;dashed=1;verticalAlign=top;fontStyle=0;fontColor=#147EBA;" vertex="1" parent="4">
                    <mxGeometry x="26" y="249" width="470" height="190" as="geometry"/>
                </mxCell>
                <mxCell id="8" value="Private subnet" style="points=[[0,0],[0.25,0],[0.5,0],[0.75,0],[1,0],[1,0.25],[1,0.5],[1,0.75],[1,1],[0.75,1],[0.5,1],[0.25,1],[0,1],[0,0.75],[0,0.5],[0,0.25]];outlineConnect=0;gradientColor=none;html=1;whiteSpace=wrap;fontSize=12;fontStyle=0;container=1;pointerEvents=0;collapsible=0;recursiveResize=0;shape=mxgraph.aws4.group;grIcon=mxgraph.aws4.group_security_group;grStroke=0;strokeColor=#147EBA;fillColor=#E6F2F8;verticalAlign=top;align=left;spacingLeft=30;fontColor=#147EBA;dashed=0;" vertex="1" parent="4">
                    <mxGeometry x="276" y="280" width="220" height="140" as="geometry"/>
                </mxCell>
                <mxCell id="13" value="Public subnet" style="points=[[0,0],[0.25,0],[0.5,0],[0.75,0],[1,0],[1,0.25],[1,0.5],[1,0.75],[1,1],[0.75,1],[0.5,1],[0.25,1],[0,1],[0,0.75],[0,0.5],[0,0.25]];outlineConnect=0;gradientColor=none;html=1;whiteSpace=wrap;fontSize=12;fontStyle=0;container=1;pointerEvents=0;collapsible=0;recursiveResize=0;shape=mxgraph.aws4.group;grIcon=mxgraph.aws4.group_security_group;grStroke=0;strokeColor=#248814;fillColor=#E9F3E6;verticalAlign=top;align=left;spacingLeft=30;fontColor=#248814;dashed=0;" vertex="1" parent="4">
                    <mxGeometry x="60" y="70" width="390" height="140" as="geometry"/>
                </mxCell>
                <mxCell id="25" value="" style="outlineConnect=0;dashed=0;verticalLabelPosition=bottom;verticalAlign=top;align=center;html=1;shape=mxgraph.aws3.vpc_nat_gateway;fillColor=#F58536;gradientColor=none;fontColor=#007FFF;" vertex="1" parent="13">
                    <mxGeometry x="120" y="39.88" width="60" height="60.25" as="geometry"/>
                </mxCell>
                <mxCell id="15" value="Private subnet" style="points=[[0,0],[0.25,0],[0.5,0],[0.75,0],[1,0],[1,0.25],[1,0.5],[1,0.75],[1,1],[0.75,1],[0.5,1],[0.25,1],[0,1],[0,0.75],[0,0.5],[0,0.25]];outlineConnect=0;gradientColor=none;html=1;whiteSpace=wrap;fontSize=12;fontStyle=0;container=1;pointerEvents=0;collapsible=0;recursiveResize=0;shape=mxgraph.aws4.group;grIcon=mxgraph.aws4.group_security_group;grStroke=0;strokeColor=#147EBA;fillColor=#E6F2F8;verticalAlign=top;align=left;spacingLeft=30;fontColor=#147EBA;dashed=0;" vertex="1" parent="4">
                    <mxGeometry x="41" y="280" width="229" height="140" as="geometry"/>
                </mxCell>
                <mxCell id="17" value="" style="sketch=0;points=[[0,0,0],[0.25,0,0],[0.5,0,0],[0.75,0,0],[1,0,0],[0,1,0],[0.25,1,0],[0.5,1,0],[0.75,1,0],[1,1,0],[0,0.25,0],[0,0.5,0],[0,0.75,0],[1,0.25,0],[1,0.5,0],[1,0.75,0]];outlineConnect=0;fontColor=#232F3E;gradientColor=#F78E04;gradientDirection=north;fillColor=#D05C17;strokeColor=#ffffff;dashed=0;verticalLabelPosition=bottom;verticalAlign=top;align=center;html=1;fontSize=12;fontStyle=0;aspect=fixed;shape=mxgraph.aws4.resourceIcon;resIcon=mxgraph.aws4.elastic_load_balancing;rotation=90;" vertex="1" parent="4">
                    <mxGeometry x="254.5" y="25" width="45" height="45" as="geometry"/>
                </mxCell>
                <mxCell id="28" value="" style="sketch=0;points=[[0,0,0],[0.25,0,0],[0.5,0,0],[0.75,0,0],[1,0,0],[0,1,0],[0.25,1,0],[0.5,1,0],[0.75,1,0],[1,1,0],[0,0.25,0],[0,0.5,0],[0,0.75,0],[1,0.25,0],[1,0.5,0],[1,0.75,0]];outlineConnect=0;fontColor=#232F3E;gradientColor=#4D72F3;gradientDirection=north;fillColor=#3334B9;strokeColor=#ffffff;dashed=0;verticalLabelPosition=bottom;verticalAlign=top;align=center;html=1;fontSize=12;fontStyle=0;aspect=fixed;shape=mxgraph.aws4.resourceIcon;resIcon=mxgraph.aws4.rds;" vertex="1" parent="4">
                    <mxGeometry x="61" y="355" width="50" height="50" as="geometry"/>
                </mxCell>
                <mxCell id="31" value="" style="sketch=0;outlineConnect=0;fontColor=#232F3E;gradientColor=none;fillColor=#2E27AD;strokeColor=none;dashed=0;verticalLabelPosition=bottom;verticalAlign=top;align=center;html=1;fontSize=12;fontStyle=0;aspect=fixed;pointerEvents=1;shape=mxgraph.aws4.elasticache_for_redis;" vertex="1" parent="4">
                    <mxGeometry x="128.71" y="355" width="56.52" height="50" as="geometry"/>
                </mxCell>
                <mxCell id="37" value="mysql" style="text;strokeColor=none;fillColor=none;align=left;verticalAlign=middle;spacingLeft=4;spacingRight=4;overflow=hidden;points=[[0,0.5],[1,0.5]];portConstraint=eastwest;rotatable=0;fontColor=#007FFF;" vertex="1" parent="4">
                    <mxGeometry x="60" y="325" width="40" height="30" as="geometry"/>
                </mxCell>
                <mxCell id="38" value="redis" style="text;strokeColor=none;fillColor=none;align=left;verticalAlign=middle;spacingLeft=4;spacingRight=4;overflow=hidden;points=[[0,0.5],[1,0.5]];portConstraint=eastwest;rotatable=0;fontColor=#007FFF;" vertex="1" parent="4">
                    <mxGeometry x="132" y="325" width="40" height="30" as="geometry"/>
                </mxCell>
                <mxCell id="35" value="&lt;font color=&quot;#007fff&quot;&gt;Application&lt;/font&gt;" style="text;html=1;strokeColor=none;fillColor=none;align=center;verticalAlign=middle;whiteSpace=wrap;rounded=0;" vertex="1" parent="4">
                    <mxGeometry x="385" y="384" width="60" height="30" as="geometry"/>
                </mxCell>
                <mxCell id="19" value="" style="sketch=0;points=[[0,0,0],[0.25,0,0],[0.5,0,0],[0.75,0,0],[1,0,0],[0,1,0],[0.25,1,0],[0.5,1,0],[0.75,1,0],[1,1,0],[0,0.25,0],[0,0.5,0],[0,0.75,0],[1,0.25,0],[1,0.5,0],[1,0.75,0]];outlineConnect=0;fontColor=#232F3E;gradientColor=#F78E04;gradientDirection=north;fillColor=#D05C17;strokeColor=#ffffff;dashed=0;verticalLabelPosition=bottom;verticalAlign=top;align=center;html=1;fontSize=12;fontStyle=0;aspect=fixed;shape=mxgraph.aws4.resourceIcon;resIcon=mxgraph.aws4.ec2;" vertex="1" parent="4">
                    <mxGeometry x="359.5" y="90" width="55.5" height="55.5" as="geometry"/>
                </mxCell>
                <mxCell id="20" value="&lt;font color=&quot;#007fff&quot;&gt;Bastion&lt;/font&gt;" style="text;html=1;strokeColor=none;fillColor=none;align=center;verticalAlign=middle;whiteSpace=wrap;rounded=0;" vertex="1" parent="4">
                    <mxGeometry x="299.5" y="102.75" width="60" height="30" as="geometry"/>
                </mxCell>
                <mxCell id="29" value="" style="sketch=0;points=[[0,0,0],[0.25,0,0],[0.5,0,0],[0.75,0,0],[1,0,0],[0,1,0],[0.25,1,0],[0.5,1,0],[0.75,1,0],[1,1,0],[0,0.25,0],[0,0.5,0],[0,0.75,0],[1,0.25,0],[1,0.5,0],[1,0.75,0]];outlineConnect=0;fontColor=#232F3E;gradientColor=#4D72F3;gradientDirection=north;fillColor=#3334B9;strokeColor=#ffffff;dashed=0;verticalLabelPosition=bottom;verticalAlign=top;align=center;html=1;fontSize=12;fontStyle=0;aspect=fixed;shape=mxgraph.aws4.resourceIcon;resIcon=mxgraph.aws4.rds;" vertex="1" parent="1">
                    <mxGeometry x="319" y="417" width="34" height="34" as="geometry"/>
                </mxCell>
                <mxCell id="30" value="" style="sketch=0;outlineConnect=0;fontColor=#232F3E;gradientColor=none;fillColor=#2E27AD;strokeColor=none;dashed=0;verticalLabelPosition=bottom;verticalAlign=top;align=center;html=1;fontSize=12;fontStyle=0;aspect=fixed;pointerEvents=1;shape=mxgraph.aws4.elasticache_for_redis;" vertex="1" parent="1">
                    <mxGeometry x="355" y="418" width="37.3" height="33" as="geometry"/>
                </mxCell>
                <mxCell id="34" value="" style="sketch=0;points=[[0,0,0],[0.25,0,0],[0.5,0,0],[0.75,0,0],[1,0,0],[0,1,0],[0.25,1,0],[0.5,1,0],[0.75,1,0],[1,1,0],[0,0.25,0],[0,0.5,0],[0,0.75,0],[1,0.25,0],[1,0.5,0],[1,0.75,0]];outlineConnect=0;fontColor=#232F3E;gradientColor=#F78E04;gradientDirection=north;fillColor=#D05C17;strokeColor=#ffffff;dashed=0;verticalLabelPosition=bottom;verticalAlign=top;align=center;html=1;fontSize=12;fontStyle=0;aspect=fixed;shape=mxgraph.aws4.resourceIcon;resIcon=mxgraph.aws4.ec2;" vertex="1" parent="1">
                    <mxGeometry x="410" y="351" width="88" height="88" as="geometry"/>
                </mxCell>
                <mxCell id="46" value="" style="sketch=0;aspect=fixed;html=1;points=[];align=center;image;fontSize=12;image=img/lib/mscae/Docker.svg;fontColor=#007FFF;" vertex="1" parent="1">
                    <mxGeometry x="630.35" y="96.85" width="38.78" height="31.8" as="geometry"/>
                </mxCell>
                <mxCell id="47" value="" style="shape=image;imageAspect=0;aspect=fixed;verticalLabelPosition=bottom;verticalAlign=top;fontColor=#007FFF;image=data:image/png,iVBORw0KGgoAAAANSUhEUgAAARwAAAF1CAYAAAA6D1VyAAAAAXNSR0IArs4c6QAAIABJREFUeF7tnX/MZkd1359dL2xcBQkBBVUljmNsEkWurdrEFJsi22hBMmmCjGM5CriVCk2KcFXAxLYqFCNUAcVAFBDFxZFSbFSLOMhQgrR2axAUKBRTmaKqcYzrumtFUIyQjBIWXu9W32d9Xs8778ycMzNn5s6999x/9sczd+7cMzOf+z1nfh3Y2LU4C7z4hS/8uzsHD73x4GZzBV7u5IHNRYt7yade6MDJzTdObDafP3Ri5zb814PHjj221HddwnsdWMJL2DtsNmuCTKy+DT7j9wQDzvh1FC0hIIMfSc0sWcnkVtPJk5ubcQ+Uj6meXOu1S2/AaWfbZjm7asYgkzazq3oMPM2apDhjA47YVNMmnNplesFzn7c1wPkvuXD75/MP/2xz7sVHREb5zlfv3U33/ePP2Dzwzft3//29x38gyqM2EYHn4UcfeVdtXnZ/uQUMOOW263LnlGoGkDlyyXlbsLzoOce37/srv3pu1Xv/9In/t73/4f/7ve2f3/3h4Q2A5IKoJYQAnoMndq40tVNVjcU3G3CKTdf2xqlAQ5D5zV9/hQpgcqz0v/7nd3YhdN8XvrirhFoACDEei+/k1I5OWgOOjh3VciHQHDhwKujZ63rVq1+9ufyySzdHzn/25pnP+tu9Hpt8DtQQlNBnPvelXQWkCR9TO/2r2YDT3+bBJ06laEYETaxKoIDggpH60YKPqZ1+ncCA08/WBhpFW2vDx6CjWDmJrAw4fewchc2Jg4c+3XNoGzGat77j7UO5TrVVAPjA7br3K9/e1Kgec7Fqa4K/34DD20g9RWmcBrDAsLQ7JA334p6jR9kyUjD4rf/8t4aJ0bCFzkyAmM+9D/yoyuWy4fNMo2cmN+BkGqwmeQlofMhccOEFe4rwrfu/tbnxxpuixXJHnWqHtGvevfe9f/5f/rIYPAaddrVlwGln292cSwLC7hwYHzJukW+55YNRhYOA8Jte97LquTMtTQRVglGx3D+lZYK79fE/+9p2iD3X3UJcxyYKSi0tS2fAkdmpKFUuaEjNYHg6BRmoGlwxd2qEOI0LkCLjFd4UG9InxSNxP91HWzC5sCIitxlwdO25R9VIA8JS0CBzwOZD7/9A8Gs9lftEs4cbmbI6W4IQxXhi9os9yKBTXQW7GRhw9Gy5zSknTpMDGuT9iQ+/LzoSQ6rmNS8/R/mN9mY3OlykL/+hf/unWaNaBh2pZdPpDDg6dtyzHw03zJ0DGon7hPVOrUaflgKYUDVjRCtH7Rh06juLAafehlvYSN0nmtmbitGQ60RxmljAs5WqWTJk/OrG0gkElaWxHYNOXYcx4FTYL9d9woQ7CWho9TSKFoPN63/j8g0WWGoOda8JNG61G3QqOkHmrQacTINRcqmqoUDutdfdkHyS6zqlQKM9ArVWyISUDmYr3/HZ+0QtwpSOyEz7EhlwCux21hln/gE2KOdiNRL3yQcNB5uPvOctKqrGQLO/4mllukGnoFMIbzHgCA2FZFIXKkfVYC6Ne8VcKM1JfAabdKVjBCsHOjY5UN6JDDhCW0ldKKmqceM0VIRUvEZjFMpAI6vsEqVj0JHZ1oAjsFMObK6//m1srMZXNXSDP1JCSumG33+zoJTxJAaafPOVBJINOrydDTiMjSSwoUAutxwhpGpi6kZryNtgw3eCWIoc6NjWFjI7G3ASdtKETUzVhILEGrAx0Mg6AJcK0HnLTR8RLfw06HDW3GwMOBEbSWAjjdekYIPHu66UwYZvtL1T5MxINuika8eAE7CPFmyw9gnHn6QuN1BcCxtTNe1QlLP2yuboxOvBgBOwDebZpE5NkCibXNigGO9973s2NYsvDTjtgIOcbbi83r4GHM+GtbDBRL5UcNh9nKtusFShdDTKQFPfESQ5WBBZYiVzqcRW4lwpbjSqFDZQTO/5l68t2mvYYCOu3qKE/oZe2EHQgshFptzeZArHsV1K3XCwQTYSN4oeR4Fi5Fu6XMFgU97wuTtThwFi90Dptha2TeleSxtwnrJHSt0YbLjuuZzfpaeOvu/ffFS0/MFGrQw4wd6RUjdweVIziOFKcUPf9FCNuI0pmzaAk8IGT0cd3PSHd4v20QF0Hnr0kZe2KfW8cjWF89SizCdPO3QsVHWtYFMatzHYtOlgObChEuTEc8y1OmU1A85ms4mpG86Vog3NJV3AP6KkZAi8NWz8TjfVyQsSe2qnkQDHtz/ukcZzzLUy4GwtkIrdhNQNuU8l5xxRJxlJ3Ug6GrkQ2p18lPxiNqBTHmiaA+rcvegUVEzulGxRairHFM4WOCF3ylU3LmTQ4HIPVHMbaelsYm11IwWNW3btMowMnNJzrFLvZLEcA07SncIXjL5qNZDxgfP5O96dNedGu6NLYUPPddNrl2Vq6ITcyJwZxbnlP+3JnRc+eOzYY7n3LSX9qmM43ES/FpWcq3A0OzgHmpQLQe4DNm4/6xde0MI0k+Tp20Q63F1a2LW7VasETu4RvNLGBZjgQufE9fzDPwsetpazjEELOCnY4Bn4qktiEe7pnksAj2sXaQBY2h5C6dYePF4dcDRVDR1oB7Cce/GRbfvyN+HC7GN/f1zcJ3GresCmtJPRDOm5Q8cFztvf/XFR8LcGOLh3zSpnVcDRgI17amYIMH5jDJ0FLlnO0Bo2mEOScwBcqJPRaFttB5zyfgJObE4NqVYqo0Ysb80qZzXAkR7tEmv85EpAyXCH2fl5vOGa39k3ssXNw9EATsyNKlU1Idv86b+7edYxnRBwfOX6oucc33317/7w8O5uADVTI9YaPF4FcGqUTQ1oUueCp+I4c4ENeiHeAydKzPUi4BCEEX970+teJoIone5w71e+nT1VYq1u1eKBUwob13WSKhoCjL8fTuhLCHfkA+98075+qgEbZBpSNxiBKekcKZhAqR05/9lz5c1uuQEPqJeSd6F7pSvI8dC1zslZNHBqYCM5BxwNJ3RyZqj3+TNRY7ONNYBTCxuKWxy55LwgSDCaBYjmqIHZE0nwAjnnWa01jrNo4HC798UCoZKzpXCvdIU40obOnPJHqjRgE1I30pgNIIgRN8lcG3QuXHMfpRJwJDuJdP/jNbpViwVOrrrhFmqSmpFuH+q30l7AKdmhjvZoLnEnsnvjSm6QnPRgwFlQY8hRNxxscrYOjZmQA04LdcPt2UIB8TkHfUdushx01uhWLVLh5KgbCWxyXKcpgZMzTZ/e21RNW2Rx0Fnb8PgigSNVNynYaKgatymnFE4LdZPaHGops4TbokIv99Ri0LW5VYsDjlTdcLDRUDUp4LjD4i2AE1uEaLDRA4k0p9RxwQYcqRUHTRfb38YvLiasXXvdDfveImd/4hwThIbFMQ9HCzbu6FRqmj6G+82Nyqk5nbQxlbO2OM7iFI7EnYrtU9wKNqFhcZpp3AI4GAa/8cab9vWUuc8K1un60+SSUjlriuMsDjhnn3Hm108e2FyUalaYHevPHm4Jm9BM4xYzdCloHHKnlrDQchpU6D01pnLW5FYtCjiS+E1qn2K9prU3p57AgWK64vXv3LO2x+I2rWo2L1+onN/6Zzfvu8mAk2fHYVJL4jchdZNzYmbJy/rAaQmAkHQ3V6qk1vTviblVa1pXtSiFw8VvQiNTLV0parJTAqcl3PS75PJzDLlVawocrwo4vjvVAzboQj5wWsZT/K+oqZuxIGbAGas+iksjid/4Q+G9gOMPibeGADVqUzfFzanZjbE4zlpGqhajcCTAceM3vWATGhJvMULl9hDaJgG7E9qcm2bsKMo4FsdZS+B4UcCJnQ+OluHHb6YCjqmOon469E25W3X4o4h4OQPO0FW8v3DcCBU6+u13fnL3xtYjU6mAMfbBWfoFt06yr84S7IAFmlgKI92a9KY/vHvf/kgGnJm1BG6Eyg0Y91Q3fsC4dfxmlGpDp8JmXmvY+oJWhEuXjcQCxw89+shLR6m/VuVYjEtlwGnVRMryhduA6yPvecvidwUEcLCURDr6uOaRKgNOWX8S3+WPUM39WBXuxbG8wt34a+mKDu+LxbKYQSzdY4gA5dpyLXNxVgmcW275INdv1H53gbPUgHFs03acOEqnjKoZlMkoN4BbWi73nd3V+RKVEwIOyrGGofFFAEcyJE4xnJ7xGzQiFziSxljaAaa4L3VeubuAtPU0AHp3wAaniSJu1tKV89/bXb8m+ajEhsYNOFO04sxnAjY7Bw+98cCBzf5VcU5eNOmvJ3B6zjDONFt18hRskDm5Gfh7L9C6HbnFM1Pv7J5LzrmRa56LM2uFI1E21LNGAA7XEKsp0CkDDjYoRu5XX6PobkeWKI3cZ6be292DiHu2ASfX8gOkz4ENfWVx3tSUCqeXa9GyeiSwoee7blUP2PodWdPe3Hv7uyym3teA07KFNsg7FzYjAIf76jUwU5MsuY7nPtQ9gK/H+7dcuCp5b9et4t53rbONZ+dSlcDGgKPDHkmnc5/kbwbWQ+W4s3i5Tp9jFcm7+zstpt7XgJNj/YnSYnLfwc3mCm4L0VDxphilcoPGvYeHW1SRpNP5z82JbWiU2Z9Up+FWSd/bd6tSwAsBZw1zcWajcGpgM4LCaTFqotFBc/KQdjw3T78Twg7SNUc5ZaO0/hwXDZUjfW8oOh94MZUTWk+Fd1g6dGYBnFrYGHBKum74Hmnnc+/OcTVqS9pqi1Xuven0DSnwYsBZOnSGB44GbFCJtFp8qlGqHvGL2s4quZ/reKE8QudktbRHi03kQ+8dO+LHf37oXVPAWTJ0hgaOFmxGAM4SXCqCSQl0QkfXtIJOaHFkq2eFAOs/P7TGKnX8L+W5RPdqWODkjkZd9+yf39bTh3/04+CHWqpwEOg9/yUXbqfH48+ayw0aLwk4OeAhFRCbe9ICBKFnSRdW1tQ37qXdFrGOzL382JUEOEtUOkMCJwc2aEhXP/mTzdXP+vnNp574cRI42K8EB+DR4k0AAdf3Hv9Bsp3hGbhyAbR04OR2ztiixRbQCbkstQFrWhhK7/3dHx7e/vU7X713++f3jz9j34b5ro3c95QCZ2nQGQ44ObBBZUDZADa4JMBBug+9/wMsZGKdKQc+SxsWzwVMKH0IBBojSf6ztOBGioVgQs/hPlKhd3dVbg5wlgSdoYCTAxtX2VDlPr7zs81r/+rxaL8gWJQ0Fj9T5MUpHh84LVcwa8CgRx6xUwu0VQ6tHPf3I8qFWwxcubbyn5sLnKVAZxjg5MDGVzZS4OQ2Ekl6Djxug1/C5lvogORC4FSIFz3n+NZMZ/3CC1hzxeIbuLFFjCsGixzXSgM4pUHjkEGx9/GhEzu3PXjs2GOswQdMMAxwuC1CXdu5bpT7/ymXqqXtU9BxgaP9FW/5TqG8Y8FYpIXawx7GuFwQ4d+IdQBS937l21FXtgVw8OzQjF78v7QuYsFuqe1jiqoGZHPecH0I4GjABg1gKuDg2THoLClwnNtJYBOp+yoFgLSjU7pYmXNGrUrcH+R/5JLzoidX5NrSf++5Qmdy4GjBhovfcA3VBQa+1AgS4vI30UrlE4LOkuI4tZ0kZTuNNU+x/GOT7HLiOVLocKBJgZDikrGpHf77zXGHwEmBkxO3iblRqATA5nd/ekD8NaWKg4wHXNzzk2hSmzuLlM4dksAHefoXuVU5DZwD5BS/xwK+tWVp5U5RuVJuUW48h1xD953JnUQ7wiWJZ4XgjfZx6zNPbv7z3xyPTu9wnzvHiYGTAUcLNiWuFBrZ5Zdduj0GN2fWrLu/S6yTcSqnletQ2+ml90u/9NL8cjq8NM9QulS5S+qkdrP2FHBQfukHdG7QmQQ40n2IYXgom1eefnjz3EOnXBz/ynGlSO7icLYc0LjPDK0L8svkQ2dJcRwaaUoFgKVgQEfveTpnyrVCvKXnoX0ccHKgM6d4ziTAkcZtSGLGYJOjbihI+JqXnyPtD9F0nNJJAWfubpXrpnzmc1/ajjzhkgaHyTakMKsrIyODlGvVu14kwFkidLoDhzsDnNqPBDZIe9Vf77CNXRM2VL7QYkS37fuxnKXEcUL9Gx2Zhr7xOwXcKa0/XC6JcWRwJCtpyrXqCR0pcBDP+dRpP8e28bm4Vl2Boxm3QSuTuFNS2CBIjI6DziBxt/ztM/1WHwMO0pXEDLJ6lSVOWiAFnSljShQ+8Au/pCByN+Dkxm1ofVSq5Ujm3aBz3/D7b45mg5gMHZ5GidxRh1/51XOTrhXOlA5dvlu1pAmAc+dZbNkDvVePD0IIejHgoFxS6Iwez+kGHGncJjX87Td0Djjo9J+/491BxULbQaaCnwQNbIkZAk9K5bjACR2I13KbzbkDoUf5uRnEraGTC5ylxHO6AEfqSknjNtQgufgNJpPFgsRcDMZt9P6sVNfliuWDe+jyA6o9YwU9Ou9cn4E4SmzngJyZyCXvXwKcJcRzmgOnFWy4yX40mSwUj3FPEpA2FndIne5B3pJh8tAzlrCQU2q7kdNxQWTsoYT5WtpXCXByXasRF3k2B04LVwqG5wLGMXXju0EASc6QbqgBxhYIphqpAUe7C5fnl9pfuJUaLQVOLnQefvSRd5VbRv/OpsCRqpucuA2ZgNtsC3vPhOIupG5IMmN7Bcwn8beEjJk61ABLZt+2XDuk30yWnSMXRG4BnRDkUkFjvwYkM5FHHCpvBhwpbHLjNqRuUlH7lDuFmAvmibhB21xg+AHF3EWNvYZel40J3bfjgsjadRYCzt1/57nil5LGc0YbtWoGnJauFCcrU0PhUDhQNe7ks9j+t7RqnNs1jmus1IooDtRzOr+4BVvCTSqIDPNoQifkhucAh+sDbnWOBJ0mwJGqm1xXCnEbulIKJzU65Z8lJDk4jTt2xJfk7ggVyuvO65lylq0xhbcA6jo1VUJj/VdsIzOsFM+95uZaNQGORN2UulK1wMH9/tYT7tBobKsEXwXRHB8qD03vdxtMzvabuQ3N0rezAOdi10JHEziwggQ6o6gcdeBIYAMj1aiblJzkljL4CsdvXLFgrt9IWgQS23UhyznXAhx0atwrbeBIZyGPsGGXKnB6uFK1CicFHA4iUjjlNm5LP54FuJErlJhrL7G3Cg0y5IxQhfKVqByMWj306CMvndLaqsCRqJtcV8qN27iG0orhuBDhvlr+l6n19PcpG4Y9+9Qpmlhn5w8auLYpgU7NHJxYvUhVztSulRpwWqibGGxSLhV+S41SpRSOZKtLt7EYcJaPJckIZO6cqhbA4foE1dTUc3PUgCNVN3f9rUPiVpoCTipYFgOODxvkkQsQtwEacMRVqZbQX6oSqlO1hz2VERfPyW0HtZP+Uu8nca2mVDkqwJGqG8wzSO3e5xqSg00KOLGJfxrAcSGV+2XT7ghrzC+0Nq41dDiVk9sONObg1LhWU6ocFeBI1E3OqJQENikJGduWItQw3QCe9EtF+/raBL6+yEttjNYaOimVk7MuTnuEqjSAPJXKqQaOdMtQqbqRwobzWUOT/0KN0lykvtCoedqIwMkNGvcAjiSAPJXKqQbOVOqGA04ojmPAqenu0987InAkAw2u5VoMiYdqRgKdKVROFXAk6iZnGDxH3ZCRX/tXjwd7QiiOE5PdFMSTulTTd731lYDbZ7q1SxXbwiI3ftNqhMpvEZLFnVOonCrgaKqbEtikAsckdd0tKmKNkr46BpxxQRYDTmvQwCKxoHGuO4W8Wo5QhaDDHRvcW+UUA2cEdZPrVsUaJzWo3oehjdu9xyoZ6ie2p3SPksYCxrkfqBi4amcZp0asuCNmequcYuCMoG444PgqJ/U1hMrBudE9T1/s0Vnm/gzaMsLdDL+HqiG7pbas0AAOhRxa1dNosZwi4Ejm3UhjN6WulFtBqclObvCYa6h0LlWryrd88y2AOSu4sLUrNsTn6jD/CfvvcI8zxq+hLWhL3Cnp4Xca70B5jBbLKQLOKOrGNWrMV3VVTo/GqtlY1p6XP2UB54u1rEMXNKl9rktPdOgVMB45lpMNnNHUDedW4XdSOS0b69rh0OL9SyZllpQjBzSI85VO+OwZMHbtMJLKyQbOaOqGDJtyq0zllHTD6e9xFUGJC8O9gRQ0yIfbSUDyrLfc9JF97lmrgHGJyumxX042cM4+48yvnzywuShm4J6xG5/iqSHA3AlaXAOy39tboNX+Q1BO933hixv/RNTQG5W6T35eU8RvcvoH0vbYLycLOJKhcOmaKY1gsV+p3ErZ3FGF9l3KnpCygA+cmo8GqRmc2JHa34bKo73hfSh+03qEKrd/9BgizwKOxJ2SrJlqARtJLEfra2WY6GOBkCqQ7icMwODCmWOAjETNIL02aMhSU8VvclVO64mAYuBIgsUSddMKNpJYDjUoHJKnfXoCNXDtfPt07TGfkprhi+AtrnMvPrJbeMyjogsnL+DKOVW1JiCMZ9FG+v4xRL0n/KVqk/MCWqscMXAk6mYE4EgmOmkGIGnCIDXwnvNFxsSEbqlSx/C67g/AgnqVAkbTdXKDz6HZ6iO4U/S+kv7RUuWIgSMJFnO7+bVWN1KVQ0qn5qD62AhHzkRD3a65zNy4w+lK3hpgwllhl1926b5DEXPyI0VDxwzFPmQhaPaO37jvFVvwTGkmB45WsLgXcCTzDmr89dTm2gacnC4rS8tt8SnJhSCD01RL59G4z6GRLjcAHRqUGMmdkqqclm6VSOFI3Kkpg8WhBieRjq6shtrxfe9QvtwX1934yyYaSlDAp5GcnuDWJf3dPfEU/6cRXwuBhj5eodhg7Nz5XvNvSvtGK5XDAmcuweJSw7r30QgFApF0aib9/t0fHt7O3ZAcGSLZEoPvZvNOob0ujYLyqAdcboDYDRy3Ou2Um7sT2xdnpPiN26IkweMWZ1iJgPPkaYeOpZr/CMHiWPk4w8buA3zciwtG0pA7Fhi611pVDjoaLg33ZUr0cqBB2WLzg1KjbCXniGvagfMAWrlVLHA4d0oys7hX7EYbOtIKjsEG968VOORK+LETLddGWjcl6XKWPKRGPEd0p8geHHCQroVblQTOnN0pv6FJDFzSOFOwWRJwsOMe4Ek770lA6rsTpBrdOTSSuFlJveTcUzNJMDXSGRvSnzJ+k+tWHTyxc+WDx449lmPPVFoWOLXu1NTqxn35FtBJnfK5BOBwewmn3pEL9rpuKwV4kV8ohqapjGg4G3EgmoWM/Dm32e9IqaUyI7tTOSpHe0FnEjhLcKdCSofbdlFK89iBe0uK4XDA4ZROrONJbOzH0XAPwBS6MNwNeNCfbhrMtzly/rN3/yt0EJ2kPG4abl1ebCh/FHWDd5F8gLXdqihwNNypkdSNtovFuVL0PK5D5jb03uk1jmbhlE7rd3LhUANAKicHG6SLQW0k4KCc3KCK9gry1QKHCI8/uZ3tQx3C3y851WnmDB2t0xJyArHaAHJHkWqBI4FNbK7WlLOLYzblVI72aFUUOEt0p1JGx285rpYUOHOGDWwiPctbung1NnFOGzJufqgrbMKOqxQ4NEdLssl+LFg8R+DAZppuVRVwUmunRnanUo0bxKeLA1DoOOFQ3nOGDgccf8Nx6VE7PcFTC5yc3f5SQBvNnaK2yrlVzYGz9PiN9GvKyc01ACekclyA+nNNclbikyr6+J99TbxfjbTufIVDyw5yFE7J3jixYPGI6oZsxLVzTbcqqHAkizVTa6fmqm5yA8vckPgSA8e+WgsFhCVxDt/WNFQt3fozBzw+BLlRqhLQcO7aqOqGYplcHFNreDwInNr4zVKAg8pILeVHw/xPn/kY2/bn7FL5Cif0Lr5qyFE5IeOFJuIhXe48GcrbL48fY3FnQ9McoJKFnqlV7SMDh2vnmnGcIHC4vW+4tVNLAo70NAiOOlrQie0qxz2/5nc3jsMdl0xQyIl7cGVzF266izbdSXupPDB3502ve9nuanHaNM2dYFgCGPeZKVdtZHeqdxxnH3Bq4zdLgg0qgwuoTRHHwRcaE9wkIyZcZ5b+LlnS4Hc6Tehw5SQoxdLVAoV7/pzVjcSt0orjBIHDLWdYQ/xGGlCbIo6Dxo0tTWt2LOQ6UOh3Wk+VundK6JS8k8Y9XCAa/WX0q1fgeB9wLH6zt2lwFSFZ3oActVwq5OWuxG6xIXxt5wgt2hyxnLXvSffPXd30dKuygZOK3yzNnaKK4ALH6EzupluxhqwFHfeLWjIipNXRUvmEArO1pyL0KHfuMzh1M3qw2H1fLnygMR9nH3BqAsZLBQ5XEVO4VW6HHhE6qdXSSwJP6lSJOcFGGsep3QVwD3AkAeM1xW+kcRy4VR9455vYj6OWwnHdKvy9dhiaLXhhgtT+z/52rq2DuoWvkLwttsEW1cnUu/rlvjMXPtAIHO8DTipgnNrdb6nqRtOt0gSO9tyX3MYpTS85cSE0Dwb5jwyhJblS0g8r0tVOANwDnJqA8dKBw9F/iuFxvzOP6lph6YLkPG9q+LQPDu19gykAuEKbpXPgo03X3XSYy1MzwQ95pUA6h3k3Mbtx4YPaOE4WcNYYMJbSf4rRqtBXdlTovOWmjxTPFOagUvJ7bONzSV7cUUFzi930DBzvAkcSv1kzcFApGrOONd0qP5YzcjyHc0EkHV0rTU3Mi9tMbM6wgX05Ja+mcGqAs3R3SqpyphitQtlCQ9AjznvhOqsWULh8alQgF5NaOnBqA8d7FE7pDOO1AIf7AtC+K7X7AHMdxv89pB5qXIbc5+ekn3Lnv5xNtELvtGRXSvpR7QacNY9QuY2PO7dcEjzWdqtCrhX+r+ZLngORkrSSA+ZK8g3d4w7Bu5up5+QvUWdzVzdkj9REV6SpGanaVTiSEarYDn9rUjicypliTg41lNCSAukOfDmdTzMtKR5a+V26BQWVyR3hwuhW7WhUzLa+DeY8MuW/CzdS1QU4sYDx2mBDlROrlCn3Og59hel0idIvuyZcuLxo6w3aggIQouuBb96/PSKG/qT/pyFz/Ftzuwm3rJwrhbRLUTd4Fw44NYFjscIx4OztLqknru/eAAAgAElEQVRo/lTBY5QwFM+pGZXhINHrd7wXJgLSnz2fKxnSXxJwWo5U7QKndA3VWhVOyrWaUuWgXKEv8hKg0wsy7nO4USnXlZvbUoaYPZsDx4bEy5ryqConBp2eG2KVWXSsu1JrpUIlXYrK4YBTczjeVuFIgBNatLlmdSOJ5eAspN5D5NzX2aAjg1rpRMUlQEcCnIMndq588Nixx2TWfDqVCDixIXEDTjrANmUsh6o45BIYdNLdpBQ2lOvcodMFOCWrxA04/HKHqVUOOoFBR/4dlsy3keQ2Z+hwc81qJv/tKhwDjqQZ7U/DDSGOoHJincgCyXvrUws2S1A6rSb/iYETmvS3doXDSU80vKlHrKjxG3TaulGx3OeqdLgPaenkvy1wSmYZG2yOb7jTCqkRjqByUJYUdHqfAFGmJ9vcRadgSGY54wMiSeeWdI7QmRQ4oUl/awUO59+GusQoKicFHfw28tqrFqihZRV3fPY+Ufaox2f9w6s2P/g/f7E5/Oj/yALP3JY+cMApnW0sUjgGnFPtUeJCxVruFBt0xcqSilWsZQQrR9WQa3z8jL+3ed4v/vKuWZ/48l3Z0Ln6yZ9sXnn6YRHgpkxkwJnQ+jWgcYs9imvFKZ05rb/KbRYlgWFSNqFnLRU6BpzclqWQvsR9Sj12JNeKgw65WL/5668YejNzaTWX7sPz7L9/2R5VowEd5DF6XIf7yHZ1qZYev9EGjdtIR4TOZz73pU0sjkF7ycwVPKWgQZ1JYEN1m6t0RoeOAUf6KatIByPjko4+lT6K4iTcaZ0tNuqKlZmLaaDMl1926WYO21yQegNIcQZ77qhSLmzIpggm/+i/fyGrWYyqdAw4WdWYn1hD1eQMmc4ROrDq6OCpUTTUanKUjd/SlqJ0DDj5DBHdUQsaQAajF7gwgpHzlaPg7Gtefk6yrD2VjjSoSuB50XOOTx7joY277vvCF7cbdJUoGhc2GPKmy61bUYPabLLaAOU52rC5AUda28J0WqBxh0lLpLUbI0m5WD2hg/fgXCy3o0x1VriGmhE2l6x4DvLM+fC4thxl2NyAI20ZgnScMVNZkKIJgca9L7fBkdqBYoiBpxV00HFjF07NlKgGlB9bgCLO00r1UDkpNoMy16gZQVPZkyQ1PB7Kq8S9wjNGgA7XR7qNUs15hKpG1UhBUwMd3MspHi3okDrAM2kDc7/T0FG7+H8JdNwvNe7FfsMY3cKVe044wQVH9WKPY61N1nMh46fPje/kfnjoeVMHkw04FS2lN2hqoUPg8TstKZ8a6FCMJgcgFabf3krqB393Nz3Hv7HxOW2aTvAjwPVWMNL3XAN0DDjS1uCkqxnmLlE0sSKWfuVcxYC/E4Dc0wly1EPtxlIFVbDIW0raRmkbmErpGHAymy5nsFh2JY1JUrQSf57LF2V1QUTpASRciKW4l+T0Ae6Z9vspC0Dl4OJiea695gQdrv9YDOepmq1xn3Klcm7ny4FOzpyeUDkIRu5vPQOsubbRSO++c867UqDWL8OnTvu5aFDanw4hLX/JSnPk3VvpDLOWauSgMUflWKMo+VpJG5j/hZNsa0AjVrj3Q+//wDaLnA5UUra53eOrO3Izc2YXoxPjwurt5x56+tA9sgXaeqrjUbuh9DlqJ+fjg/x7j14ZcBI9olTVtHKfUp1XIqsxqe6jt35sm83Df/ng5lv3f2v7d5rYpg0g9wuPr7p2/howI8Bgzg+u0OiXdO4QgebqZ50CTupKQccHDvJpCZ2eKmdS4KCyaYvRkRROKWjQMFq7T7FGDODgSq25gb1vv/OTm7POefG+bAAgughE9G8aPqZ/YyQqBQ8Cjd/xqI4p6J5yLbgOS7/TcD/9G2uc6CL15ruBBBfuCF/p7OjY+3Lv8KknfhxcX+e6VW4eOdCRfIDcvHtBhwNO1RajOJeK20QdwBkNNiWLLKdQNWgwBBpqPJxrBZVz/fVvC0KH6yD0O6kjuGW+SwY74KTIkCvh549614APuYpYAOpONsRcGz/ALZ23Ix15o44qed/Q+8c2FQ+pHLpfCp4c6KwGONQ4p4bO3FSNDxq/MaeUDq1Xuuqaa6SMCSqiN1zzO/uAEzsrnntQLXzciY1SqMTKJHGhcsCaever/nonGEdLAQf5aUOH3oerp9rfJ1c4I5ybXAobVBL2ou11cZDxy5FSO6QKLrjwgu1tITcr9V533XnnNvDsK5zQSaq59iH4lLhcNeCR7kVco2pgC7wfFBG9Z0hRc8DRhk4P4HCDLyrnUp04eOjTJw9sLgo1uh4vyTV2jrix+3vGanJBU6J2CDx0LwcgAOfGG2/a86hSdZOqI8Q5cOW6uW5sR7LJlyRek6tqJKo91gljcZyQrSRqhxu96tEXJwcOjIcv4hTXHFRNLWhcu0piO1ggiYuDD2I4t9zywc09R482Bw49IKUGuPbjBo0pYOzfw22oJVU1Esj4zw599HKAI1E7XDxnNcDpFayiSi4FDe7vpWo0QZPjZiEtGh6tzvbB4+alGb/hgOH+XgOenOdQWiloXDDmPkcDOBLopFTOKMB56NFHXpprP6TfHhOD6+wzzvx6zKXC772AUwOaXiNQLUHjV6Jky0oXPq7ywbC5707hdy5+48YuKIbh/pnT0LjJczl5xdLmuogl6gbPDrkauQrHfYeYi5UCTo9+yLlUpcsa9gCHO32z9YvWgKaHqukJmVy146Ynt4S2lvDdqVh8o7QT0rO54WbEeEqCyxIgtYjZhJ4b64iSwHHsPULQMeA0VDi1oGmtaqYETQ14Yg28FXDc58XgU+Jm0WQ95J8CVo7KKYVrC+CEXKypgcMN0HRROC18Rw3YtBruHgk0muAJAae0A3LqgwNPahmFH5NxZz+HRsLmDByyI6mdh+4+tazFv1r0wdBzugBHMttYcy5OLWxaBYZHBo0GeNBoaZkK5dcKOMifc7VCqicGjxR0XCXk2omO1XXLUfq+rRSOX6+xuF0v4MRmVVM5S5c17InhcMBBYs2hcY6iKZfAP+OZ+9Jyv88JMrF3kQSXce9owEGZAAC3kUvOspe2HxdEtGasFDgoa+i5NTGcUH3G6rJ1HBVl4QLGSKMGnNTkPzxI64UlLxWqCG1VswTQSL+OlG4k4MRmKkuAk5qIh03IcZG68ZXWyMBJzcPS/ODHPlxc36yZZbxP4YwMHE3YLBE0UvD0BE5sjxluIWgpcKSjVXMETi93igMOAsaHTuzc9uCxY49xnkPo9915OPix19A491JuQTVHodYAGg48vYPGJYs9feCEABFqQ5LAcQ1sQi5VzTyc0dypmMvolrNmhGqPwpEAR4uyUuDgebWjUGuEjNtAfIk+JXBQLskGX64KiwEiFzi1oCGb+jEcA06ezslSOD2BU+tCrR00bjPwg5D+TGOtzhhqeiVulaSdhYK3rsJp9U5TAEdij7xuH0/dcoRqn8LBSFWPOA6ncGqUjYFmf2OaEjhUGsmcHHcLjdQARaz9EHBawaa1SxULGGsN1nBQ4vplbcB4WOCgYGe/9vc4++z53UATN9cIwEHpUnNy/G08Y50sNX+rB3B8BaA5JD7lcDjqRwKc0kWb1Dr3uFTbjt5pEScn3UpcKoNOGDr+l1MSlM2ivUJiv7HHJvKl9ttp7VKFOmRr4PR0p7i5TbUB430Kp2fgmHs5UzkKvfipLOYInJK3d5dDtHCrpgBOL3cq5C76ddAEOL1mHHPyDS+bq3JM4cjcqhEVjuQDJIGQr4zcyX+S+1NpQioMs941rtHjN3jHmhnGUZdqlMAxCpgbPDbgyIDTc/KftDNqASf0vJB7VgIiPwygOSQeAk5Pd4oTABoB46BL1Qs4EglnKkfaXfl0foN2h8ZbuB98iU6lyFnEiw5IuxxS/nQ4YO7JpMiLLloKwZXZjx+1jt/0dKc44Gi4U0Hg4D+5Gcda5OVe0lQO1wXkv48Yx5HCxgVNaDtV7GwI8Pibjcmtk59SU93g6aERqp7A4RTmpMCBgTSMIQEOnpUzRG5ulcytmjqOk1p8+dZ3vH37EjhJFKdu4krt20xvDPCEjsTJxwl/hyZwRnenYA2N+E1U4czZrTLgyIDjL3Ho6VZxsJHAJfaWpHZwzHGum8Vj5ukUawKOVvwmCpytqug0H0eicnKCxwaceLdJuVW9gBOT7qhjKJsa2Lhv7oIH/x+DD7lrD5/+S9vbz/qb/735xvd/uuGO6yF3X2OUai3uVBI4I8VxUNCcIXKDjkzltJ4o55aCi9eUAAeHAOLsLe4KxXjoI/ayV/yD6O1f+9J/3Z4Jn4KPRuB4SuBw9QLjaMVvksCRzMfRiOOgEFzAyoDDdSn577FlDi0VjqRR4w1wlvr117+NfZnQaaMceD7x4fdt7vjsfbt541kvePVvs8+iBP/x9n8fDOxS2xRn5CUcPX6j6U6xwOmxkBOFkLhVWzdPuL7KFE6+W9UKONK6pRK//jcu31x73Q3RF+CONo6Bxz+BNBc4KFAL6EypbiR9D8CpXT/lVua+tVTuj3N1qww4cuBoTXEIPVGiXP37Uq6VDxucm47hcFw4/hjxH0rjg8cHDj5eKXcqZkG4WaFTFUqDyFMDh6sjTXcqqXDwIwccpOnpVlnwuFS4773Pb+Taq6xTLhQFaVGi2EgS0tx+5yf3vawLHADFP8YY6ujmP/rjPfcReHzgvOGDf1JszJjSyY3njO5OwUBaw+Fk7KTC6Tk8LpXe5lYV95PdG0PAKZnq75eE9iqOrej2A7XfO/ofopP1QvEcFzhQN/4xxgQqXwkBOprAwXvf86+v3zPyVaJwplY3XJ/Tjt+wCkeicjQlObdlBcojHa0yt6qfWyUBDZYkhIK0fselUodcKw44BKlQnOfNv/t7e+BWo3BC8ZxcdYM8pgZOb3dKBTiabhVHXDxL6lYZcNJKSEPlcKBx6ysVL4lBx1c5vkvlq5b3vvc9m6uuuSb44i5w0IZe9a9uKZaKfhynBDZrdKdEwJmrW2XAaQMcgkzqnG96snQkKOVaASLuZEAfOjTHBkHjGGx8l6oWOC4gS1wp2CcEHK14qISknLpp4U6JgNPbreIMYW6VpDnxaWKnOYTuzIEMqZqYCxUrWcq1cgPI3LB4KH9N4Giom6ndKcm8KO3RKaqXZNCYEvUcrTK3ioeFVgrfrQrtGyNRMm55atRDDDquyikFjjuipVVGTXWjGQvl2oekj2mPTmUBR+JWaRlMYgwUXjJaZW5VuulJ1gtxjdf9XepCxfKMuVb+MHkudPwh9FLg+MPhJbGbNbtTYpdK4lYhjZYPquVWzRE4pDpKG3MOIGLSPjcPpK+FDT0zpnLcGci1wIFt/9Eb/nHWa8KVeuLLd+0OhZeqmxHcqdRG9ChfK3cqCzg911ZJVI5keHxuwHFdnJoGndOTNFSOFmxQ7hYqx1c4JeVtqW7w3tiBscfF9a1WweIslwqJR3Orljg87gMHxxz3gGbsPCRJByjpvFy+2ioHwHnVkVfvPja3zFqB4pi60QpHcHblYNNa3WQpHHOruOqs+z00akTnqveATonSKY2FcJaSqJzUivHQTOMa4GgMg9M7TznZb3bAGU3lLMmtmho41CGoHIAJLtpgKlS+mslzpdAJjVjRsDfWZuHCkDy2uSDwYBmEu/VojsLRcqVQrqmPguFio63dqWyFM5rKkbhVPdQB13kkv6eAg/unfg//y5zTaSXv76fxg7T0uzv72AWKv67KnXXsr7vKKfvtb/snu0WrjauF1M2a3Kki4EiCx1pGlEhAbnh86o4q7WyhOTHkUlEeU71Lb9jQ+0rn5fjrpHA/oPLRWz+2zcoFTo4bqKluYvEbrZFdrp2NoG6KgNNT5UiAsxS3ilM4U0EnVq6SvWS4TlGqcm7+F/90z25+yCemcKTA0QwUp9ypHqNTkn7UcijcrVfRTGO/IfRUORyZlwIcX0XE3qunyoktMGwZu/HbWkjlhFaSuws5/VXjJQpHM1AcUzdangAHcq4P9YjdUBmLgcNtP4oHaMhFjs5LieP4nXsE4IRiDjnxD64jSH6XxnL8Hf7ckSpXAUkUjra6mdKd4voPytZL3RS7VFK3SoPgkoVmS4jjSIED2/dQOSOom1Qsx1c5qdnHboxHAkxtdRMbnerhTnHqBjZutW4q9EEpUjiUEXd2lZbK4YzGuVU9Oqjka51KIwVOr3eJjaj0dKfIXrF5OdLlDjnAcQPFtaNSVP6pRqdGUzdVCqe3ykmt/zDg1OJu7/2pSYDkwvYIGrulisVyJFtXuMBJbZ7ewpWacu4N96HurW6qgSOZCNhD5SwljuN+CVMQba1yJLOOJbEQTQzGVA63dUXOOiptVyoWu8H/t3anpOrm0Imd2x48duwxzbpK5VXlUo2icpYInFhcqjVsUKcS4FCjksREtBpzSOWktiHFc13goJ3ENgbTnnMztTs1orqpVjg9YzkcsZfgVrkKZ0rgpL7MIXikOrIWbJBPicpxlzXEVJk/Eqa1NchU7hTXV2DLniNTbhuoVjjITDIvR0NGpk51WAtwYMfRVA41qB7gyVU5kjk4LQLFMWhrjNymIC6BzRSxGyqzCnCkrlXtvJyUTOTcqh6dtPZrTgon9S493yPHtXLfvSV4QionNUTuAifk/rUIFKfc0to+wLUxiSs1lbpRc6lyVE6NwVP0NuBwTbH899L9clqARzJEvv0AnvPi7QtzQ+ItAsUpl7Sm/XM1KFE3PWcVh8qrpnCkKqdGUnIGnfsEQInC6eVS+Y2lVO0gHwLPw6f/UtF53n5ZJMsdCDiXXPhru9uC+kPirQLFPdwpOkmDbCPd7H5KdaOqcEjltF7ykJKMc4/juHvR+CvFqWH1dKlCX6gRwCNVOSg/ndbgB4xbuVKt3Cn3qB4843uP/4ATPMHfe84qbq5wpCoH6UqlpQHnL4oamvZNteBBeXLPrnLfQTIREIfk0cZbLnA0N0QP2TXmgua2+dzzwCR1DJfqxGbz+d7zb6hsqi5Vjsopda2WHMeRKJypXKpYY64Bj+tuhc4dT3UgyRD5Jz78vt1tK9yAsQ8rrWHwlLqRtnfJ8ckSsHBpporlqAOHoPPkaYeOcS+dS3zkt3bgTO1StQZPTpzH3Y2PyoWOTcsd/C0rADU/bqO1XoqeX6JuWigZru/h9ymg0wQ4LV2rmsDxqJ2VGodE4Yz+DniX0lEtFxoSd4s73cGP3/hxGzyvh7qJhRB6qZkUfHpDpxlwpOuspFLTNdpS4zgS4IzmUrVSPK67FVM9qdMd3vqOt29on2OK37R0pVKg9du4ZMsViUJx0+AZ7pUTVMbIVa+YTjPgtFQ5awbOHBSO2/BrYzy+6vHhE1M56IDU6RC/wYkObifUdqVS70mhg1agAVwvuPCCPcBBwPy+L3xx33vHQNZruLwpcFpBJ+VWzXloXKJw5gaclvChvO85ejQpCFz4UEJNV4pzIwEc6TwZqbLBOx255LzNtdfdsDvJMXQvZloDPJyNerlWzYHTwrVaauBYApy5uFSpjqOlesjtynEf6B46b0vawVPpamNWOWWQgsbNk87t4qDTQ+U0B04LlTMn4KBzSRu3ZKbxnBWO37E0wZPTabXUTa/y00ztyy+7dOs6pbZTTdkhdJyOmx4q56FHH3lpji1z03YBTgvopFaOp5Y49O6wBBFJI18bcFq4W1wHCNUDfRTwZ+rKVVJcWbjfEXt6/uGfbc69+Mjmqmuu4ZKLfueg03omcjfgSF0rWE0yP6c0cDwVcCRSXrIfzhJcqljPaK0YKFDc+jminh9JRC4TIFOjZmJl8HdA9NO1dqu6AQcvJt03RzJUPpfAcci/j31l3S/o1BtwSTtNShX0VgTSMo+WrjVk/Pf1jz723aqDJ3aubLXtaFfg5LhWHHTmAhy8c2zXfje2M8KpDT48AIzQCM9oHXaO5dGKy5S8+5QqpztwoHJ2Dh5644EDm5s5Y6Vcq7kFjmNfe5L50pM3c10qPz5hqoNrdW1/LxllalGiVCynZfC4O3DItZJsY5GK58wJOHiP3LhBbEMxNwYVUiQtGqflWW8Bd1fC0lGm+lI8nYO717Ofb8s5OZMAJyeek4LOXEaqSoCDe9xYD8HFFIpmt+uTF0abMKStMdJERxpjJrF75QaYubk5rYLHkwEnJ54Tg05qpGqkofFS4PTpDvaUlhag00FLVY0LGMwYxoVlGriwwLVmbo575npI5bSYkzMpcHKgA0l69ZM/2bzy9MO7tpnL0DgK3HM2assO5C8SRKOvvagDUT6jqTgK8Lrvifkx3z/+jF0AhMrMnZmVshtAQ+uh/BnCWoop5VahbC3m5EwOnJz5OT50RgbOHFygFDxowhl1Cn9xYKizSL/i6ExIS1/vUF6uy/Cdr9677dwumEqgRCNuuSur6XTP2PvFArAlwCFXx19sChtRHEjDNUN+U4xWTQ4cvHgudG595sltGy0dGm85+S83OFyrDlL3ux2LlEgKJFJgtCwzlzd9+ZHOBVEIQP6K8Of94i8Hs0d7SClQACfVyWMd1w0Ub9X8UydJxN4xpjhajmxxo1Xac3KGAE4pdEYbqZrKbSKwEFTg1/vKhGvsXEcf5feQKnJ39qNycrsGuO/DAQdK5aO3fixpgljH5c4+J6URegf8RiqpVf2lJgG2cKuGAc72C3DGmX9wcLO54uSBzUVcAyf36sM/+nEwaWxYmRK3UDktgeOrFVepkLvTqlFyddHz9xBw4H7RZlslwME9D90dB4oEODGV47pVofqJjRZpxWm4uuntVg0FHIKOZFIgZ8hewCGZTgBz58ZIV4nH4j3ulHe8b+7QJ2ejOf7eCjhPfPmu6NErqIev3P/fWHOFVE4qjhOCDYGmV11zw+PakwCHA44mdHoNjcdiA2wL9RIAWm4MSPJlzX3G3NPHgEPHwZQqHA442JidU5Ah9wSwok3dt23biePQ5lj4f3KDtQLCOfXcM44zJHC0oNMLOFS5GuBxG74BZ3+3iY1s0YbppcBJxXEIGhxwQu5JbuA4BxRaabk4juYkwGGBowGdVOCwRQwHZa6FjgscqZTXanhzyGcq4GDfYE59xNwTSeA4ZHt3RC5WNxrxO24+zmqAUwudKYBTCx0fOBIpPwdQaJUxBhx/lCdnlApl40aquKFxer/Q7F2abey7VCnI0AboSJNa+Et5YISSBhJyIcQFjjXXVg2tcGDMnNXlfgVOBRy/HDmqx234Uimv1ZnnkM9UwAE0bv6jP2ZNFHJPuJEqypTr+O7D/UmM/jyrnKAzFzjGc7VmHQ8PnBrojAKcVCv1YeQDRyLl2V6woAQtgEPudWpagzSeFoKGdMaxG0R2q8yfrEm/ubO/ufhSqgmgzO6xyKG0Wm7VLIBDBsA8nZwh8zkAJ1S5bsOXSvkFMSX5KprA8eN4qVniORPwLrnw1/adgRUbqRqh3ihW5I/0uWVbJXC2PnAGdFJzcVoFjTUakAEnbsUYcPwvtGQ/If8pKeDkuLf+MPPoI1US4GjFcWalcHKVzhKAI40daIBuDnnEgOPPNvbXUUnejVsHd8+9R9m5OHiOH8cZGTiuPWPLK/BOqwaOVOksATjS2IGkQy0hTUvgwD41izjJvqHAcenQeOs6M+BkWFiy9qr35L+M4keTuo0+J3ag8ezR85gDcEKB45yh8Z514NoztCbNLYvGSNUsXSrXCFxMZy7Hrbjv5AInJ3bQs6FO9awUcNygZ4lLxSkcqdrkRqqkI0qxd90qfGarC2n9+MCJBY5X71KRQbmzruaocNxYggFnb9eRAgd3SU479Tum1tC4Hw+RDo1TANffTtQvZ2h/o5y5N8jPtyUUjgGHQTUHnNjQ+MijVH7wUhqslH7V5pxuSuDkwN8fqZIAh1tikKo3d08kWgjKAShkS39NGj3TFM5TluB2C5zjXBwfODYX5+muNlfgpFaN09uF1k5hV0O6aA9l6QeD22DdgCO1pJOuFDhzUjgGnDGAg1JI68JfUzXa0HgM3CmFo3GKw+yDxqXAQeMZGTr+SBW3xWUBq2d5S2uFw83FkQJn9Lk4ucBZ7UzjUC85+4wzvx7blnSOMRx/tEQ6OjJLgmQWOjVyE9oTJzN79oRU6UTM0efihOyYChobcJyWtHTg2L44vEuFFD2AI4U/B5wQCOnoHK0h7xhsc1Qi5WHAWRlwbF+cUxU+tcKRTsQsAU6uGpOk9+GVsl9q4p/GpD+Ud/YxHLxESuGULOKTVGTrNDb5L2zhqYHDDY1T+UKd151t3Lr9lOQfW0ulNSS+GOCkZhvPNYZjQ+PTAMePn/mlCAEnFg/xj67x5+KUQKHlPbERKi13ahXAmavCMeDkAye0zWhJB+XOF6ORqlz3ZGTgpNwpA47XilIKZynAkY6OlHSwOd2T6uQ9gcOdtR7qwCMDp4c7ZQpn8J5mc3H2V9AIwJGAIwQcf7bxKM2vl7ox4IxS45FyWOC4DjgtVoyjRL2BAyBILk51xfKIxW6QXmt0ip69iFGqJbpUfvCSGx2RNMglpJm7wqHjXNy6CK2ReuCb9++rLhwXQ6c10I+0aJP+HTouJlXvPXb5c59vwBm4F/rBS+m0+oFfqbpoKeCE9jWWnu/uFowLGnOuERQJFl3e8dn7qt83NwMC0JFLzttce90Nydthr3u/8u3ouVeaweJVK5yR11C5LcRGqvJcqimBQ24PHWAXO7wuFyCx9O52FEjjHiUjca042GjOvVmVwsHL+nNx5gocG6lKzzTW2Egd7YVbwEkrv5EWSgYuEVyglpDBM2nTLXe/m1yAwUYSKLZQNyjr4l0q19eFvMbBc3MFjnQdT24jnFP6nLkvpUFjDji97EWQqQEMlZUUWOrsKUoL2Bw6sXPbg8eOPab9rqsBjg8ebUO2ys82VN9r2bUBByevSlwkv/25I1sSRbMbYzm5+cbBEztXtoDNYhQOt81oCAalX79WYInla0PjecDxv+Al+xrXKhzEP1DqE5vN59Cxq+AAAAiGSURBVN3SQzWE6nnn4KE3xk6UTcVqyKXDn+5IlzvClePmodwo88OPPvKuVu18EQqnBDhzUTwGnP7AwRO5kSq/Q1Jnxf8TWHJUAnf6SCsAuMqmNWwWpXBOHDz06dgmXJLKGlXx2NC4HDhIqbEnTg5wEO8gyOQAxm+T3M6VkjZcmqbViFSoPItQOHgxrS/EaODxgbP2kapUDEcDODnulPZITm/okCprFSBeNHC0K2sU8PgdYO0jVRxwpAs4YVe6cuIcbifSnvaPvNGOEdPB3w9uNlfUqHZtt69UQbn3LUbhkMrRrqSpweMDZ+1LHHKB4079LwVL8EvdeDSH4EPPJgjRv9HOUwBwA9ZusLrG7TPgBCygrXToEVOCxwLHT1d0LnA0OkkMOBrHpmiUD21+apBI32NRCsd9acR0tNUO8p8CPBY4lgPHX94g7Qg56XoGWXPKNYe0iwWOK0khR7Xh0xM8BpxxgGOwqcPaooHjmoaCcXMEjw+cNQeOOZcqtZlUaVfx59jMxX0pfd+W960GOK3h01LxhIBz/fVv27Q+v6hlwyvNuzdwTNGU1lT4vlUCh0wxF9VjI1V7Gy+3niq2QNFdJkALIpEz1hrdc/RosIcYcAw4uhZw5j5ou1taQebQZLS1bsYlUTgucAAZbEZ17sVHtu0mtBCS2/VulNEo9YY/QYarVji+vVspHnpOqdtlwClXONzufMi55ybiE/TxoR5pwAlUR2vwkPLBn9ItMC1wLBupAjx8hYNjklOXAacfkww4CVv3AI//eHdmLGBEU/D9WbJrnnHMuVXuAk6JwkEdxE4uQAzHXCo9IBlwBLacAjxcsQw4cQsZcLjWM93vBpwM248GHgschyuvBDipkydN4WR0EiapAafAlgAPbkvt1FaQbfYtBhw94MSWRNiweHazTN5gwKm055SqZ60zjlvEcFKB4xbbUFQ2u9nebsBRqrqW+5jEirjWOA4HHNc9oiNdJBuRxwLHBhylTrKUY2L0zKGTUy/4GHDC9aUNHO2d/XRa2TxzMYXTuN7ceA8epT2beY1xnFYKJxY4NuDodRIDjp4tRTkRgCjoHLoJUHJ3bIsdIYJ71xjHyQEObAQoS1yqWBzHAseipi1KZMARmWnaRGefcebXY3vbAjhrXDmego6vVGqBg9q3OI5OHzDg6NixaS6pEyksjrPf9KXAQU6xwLG5VTpN3ICjY8emuXAH/VkcZ6/5a4BjcZymTXljwGlrX5XcuY3hLY7THjgWx1FpygYcHTO2zyXlVhlw9trfnzUsjeEgl9Qm7BbHqW/npnDqbdglB4vj7DVzKmhcAxzbqqJtczbgtLWvWu6cW7W2OE4OcHA88rXX3SCqC38/HfcmCxyLTJhMZMCpt2G3HFLD42s7czwHODR1QFpRtjeO1FL56Qw4+Tab7A4ujrOm+TjcRuo33njTbj1pAufgiZ0r7ZiY8i5gwCm3Xfc7U8Pja5yPE4OOH4cx4HRvqtEHGnDGqQu2JBbHkQWOa4GTOsXBRqrYZmoxnDoTjXU351Z99NaPjVXghqWRKhzpvsZU1BRwLHBcV6GmcOrs1/1uc6ueNnkKOLknN7gVacBp16wNOO1s2yTnlFtFm01ddc01TZ49WqYGnNFqhC+PAYe30XApUm7VmubjtABOah4OGoK5VHXdwYBTZ79J7rY4zimzawEHkMGFM8Yf+Ob9G/8MMLeSLWhc1+QNOHX2m+Ruzq3CSZNnnfPiScrW86GpuTj+UTFvfcfb9xWNAIMfUpChG20BZ33tGnDqbThJDqlZx+ZW7d/Xxj3RVAKXUKXaKZz1Td2AU2/DSXJIuVVrWuYQUzmx5Qk1lWXuVI31Tt1rwKm34SQ5pIbH17TtaAw4qaHtkgqzYHGJ1fbfY8DRsWP3XCyOc8rkrYEDNwob2j/86CPv6l7JC3ygAWfGlWrD43HgpDbSklY5VM2hEzu32WJNqcX4dAYc3kbDpuDcqrUscwipnNRGWrEKhZrBb1A0AA3+brDRbf4GHF17ds3N3Kq4WyUBjgsY5GSQad98DTjtbdz0CeZWhd2qFHAoLmOAado0g5kbcPrbXPWJa591LJ1t7BrdJvCpNsGszAw4WeYaL/Ga3SruyN/UVqG2c980bdmAM43dVZ+6NreKAw0ZNzYXxxSOavPLysyAk2WuMROvxa2SgsaAM2Y7RakMOOPWjbhkS3erckFDhrND7cRNqFtCA043U7d9EHdQ3pFLztuce/GRzQUXXjCLleSlkHGtnBqpsnVRbdtjLHcDzjR2V39qCjjuw7Bq+vyXXLh5/uGfDQkgLdB856v3br5//Bmbe44eDdra1kapN0FRhgYckZnGT8Sd6BB6A9qyAQDCdflll24VEF299tSpgQxtnkWAwQZauLgtKAw407RpA840dm/yVKnK4R5OKoggROkJRhogKoGMDxeUi9uhL/auBhyuFbT53YDTxq6T5JpaW1VbIHcDK1JE5Jb5ebsqyf+NoMGVhxQLQYXSc8qFy5d+txiO1FK66Qw4uvacNLcSt0q7wC6YcvLWAonkmaZuJFZqk8aA08auk+Wq5VZN9gKNH2yT/hobmMnegDOt/dWfPoLKUX8ppQxtfxslQ1ZkY8CpMN6otwI6OwcPvfHgZnPFyQObi0YtZ69yuavDbX+bXlYPP8eAM639mz6dwIOHAD74c00AMtA0bV5FmRtwisw2v5sAH5QayscF0JIgFNpQyxTNWG3VgDNWfXQtDUHIBdHIaoiAgjJiG1DXWLSZFv7PINO1GWU9zICTZa51JHZBRG9Mysi3ALlqJZbxoeHn4ULE/c2AUmLtMe4x4IxRD4spBWAFIHB/LuaF7UWyLGDAyTKXJTYLmAVqLGDAqbGe3WsWMAtkWcCAk2UuS2wWMAvUWMCAU2M9u9csYBbIssD/B6hI9kVrCbvcAAAAAElFTkSuQmCC;" vertex="1" parent="1">
                    <mxGeometry x="620" y="128.65" width="59.47" height="78.2" as="geometry"/>
                </mxCell>
                <mxCell id="49" value="" style="edgeStyle=orthogonalEdgeStyle;html=1;endArrow=openThin;elbow=vertical;startArrow=openThin;startFill=0;endFill=0;strokeColor=#545B64;rounded=0;fontColor=#007FFF;" edge="1" parent="1" source="19" target="47">
                    <mxGeometry width="100" relative="1" as="geometry">
                        <mxPoint x="420" y="290" as="sourcePoint"/>
                        <mxPoint x="520" y="290" as="targetPoint"/>
                    </mxGeometry>
                </mxCell>
                <mxCell id="50" value="" style="edgeStyle=orthogonalEdgeStyle;html=1;endArrow=openThin;elbow=vertical;startArrow=openThin;startFill=0;endFill=0;strokeColor=#545B64;rounded=0;fontColor=#007FFF;entryX=0.5;entryY=0;entryDx=0;entryDy=0;entryPerimeter=0;" edge="1" parent="1" source="19" target="34">
                    <mxGeometry width="100" relative="1" as="geometry">
                        <mxPoint x="430" y="210" as="sourcePoint"/>
                        <mxPoint x="520" y="290" as="targetPoint"/>
                    </mxGeometry>
                </mxCell>
                <mxCell id="52" value="" style="sketch=0;outlineConnect=0;fontColor=#232F3E;gradientColor=none;fillColor=#4D27AA;strokeColor=none;dashed=0;verticalLabelPosition=bottom;verticalAlign=top;align=center;html=1;fontSize=12;fontStyle=0;aspect=fixed;pointerEvents=1;shape=mxgraph.aws4.internet_gateway;" vertex="1" parent="1">
                    <mxGeometry x="180" y="20" width="60" height="60" as="geometry"/>
                </mxCell>
                <mxCell id="53" value="Jenkins&amp;nbsp;" style="text;html=1;strokeColor=none;fillColor=none;align=center;verticalAlign=middle;whiteSpace=wrap;rounded=0;fontColor=#007FFF;" vertex="1" parent="1">
                    <mxGeometry x="620" y="206.85" width="60" height="30" as="geometry"/>
                </mxCell>
                <mxCell id="55" value="" style="outlineConnect=0;dashed=0;verticalLabelPosition=bottom;verticalAlign=top;align=center;html=1;shape=mxgraph.aws3.internet_2;fillColor=#D2D3D3;gradientColor=none;fontColor=#007FFF;" vertex="1" parent="1">
                    <mxGeometry x="279.85" y="-22" width="59.65" height="42" as="geometry"/>
                </mxCell>
                <mxCell id="56" value="" style="edgeStyle=orthogonalEdgeStyle;html=1;endArrow=none;elbow=vertical;startArrow=block;startFill=1;strokeColor=#545B64;rounded=0;fontColor=#007FFF;exitX=0;exitY=0.5;exitDx=0;exitDy=0;exitPerimeter=0;" edge="1" parent="1" source="17" target="55">
                    <mxGeometry width="100" relative="1" as="geometry">
                        <mxPoint x="450" y="310" as="sourcePoint"/>
                        <mxPoint x="550" y="310" as="targetPoint"/>
                    </mxGeometry>
                </mxCell>
                <mxCell id="57" value="Internet" style="text;html=1;strokeColor=none;fillColor=none;align=center;verticalAlign=middle;whiteSpace=wrap;rounded=0;fontColor=#007FFF;" vertex="1" parent="1">
                    <mxGeometry x="332.3" y="-22" width="60" height="30" as="geometry"/>
                </mxCell>
            </root>
        </mxGraphModel>
    </diagram>
</mxfile>